# xmcd
#
# Track frame offsets:
#	150
#	21188
#	35997
#	55154
#	72200
#	87403
#	104773
#	129018
#	149818
#	171404
#	189142
#	203273
#
# Disc length: 3093 seconds
#
# Revision: 0
# Processed by: cddbd v1.4PL0 Copyright (c) Steve Scherf et al.
# Submitted via: dBpowerAMP V4.0
#
DISCID=ab0c130c
DTITLE=Fatt Catt Freddie - Crusin' For A Bluesin'
DYEAR=1900
DGENRE=
TTITLE0=Sufferin' Blues
TTITLE1=Black 'N' Bluein'
TTITLE2=Dealer's Gold
TTITLE3=Dangerous With You
TTITLE4=All Over You
TTITLE5=Moanin' And Groanin'
TTITLE6=Downtown Blues
TTITLE7=Sneakin' Around
TTITLE8=Crusin' For A Bluesin'
TTITLE9=Best Thing I Ever Had
TTITLE10=I Don't Know (What I'm Gonna Do About It)
TTITLE11=Take These Blues
EXTD=
EXTT0=
EXTT1=
EXTT2=
EXTT3=
EXTT4=
EXTT5=
EXTT6=
EXTT7=
EXTT8=
EXTT9=
EXTT10=
EXTT11=
PLAYORDER=
